<?xml version="1.0" encoding="utf-8"?>
<!-- Generator: Adobe Illustrator 16.0.0, SVG Export Plug-In . SVG Version: 6.00 Build 0)  -->
<!DOCTYPE svg PUBLIC "-//W3C//DTD SVG 1.1//EN" "http://www.w3.org/Graphics/SVG/1.1/DTD/svg11.dtd">
<svg version="1.1" id="Capa_1" xmlns="http://www.w3.org/2000/svg" xmlns:xlink="http://www.w3.org/1999/xlink" x="0px" y="0px"
	 width="25px" height="25px" viewBox="0 0 25 25" enable-background="new 0 0 25 25" xml:space="preserve">
<path d="M24.973,2.966c-0.058-0.137-0.191-0.227-0.34-0.227H22.26V0.367c0-0.148-0.089-0.282-0.227-0.339
	c-0.137-0.057-0.295-0.025-0.399,0.08l-2.739,2.74c-0.069,0.069-0.107,0.162-0.107,0.259v2.588l-8.112,8.112
	c-0.143,0.143-0.143,0.375,0,0.519c0.072,0.071,0.166,0.107,0.26,0.107c0.094,0,0.188-0.036,0.259-0.107l0.508-0.509
	c0.026,0.08,0.04,0.164,0.04,0.249c0,0.445-0.362,0.808-0.807,0.808c-0.445,0-0.808-0.362-0.808-0.808
	c0-0.202-0.164-0.366-0.367-0.366s-0.367,0.164-0.367,0.366c0,0.851,0.691,1.541,1.541,1.541c0.85,0,1.541-0.69,1.541-1.541
	c0-0.284-0.078-0.56-0.223-0.799l0.599-0.599c0.295,0.405,0.456,0.891,0.456,1.398c0,1.309-1.064,2.373-2.372,2.373
	c-1.309,0-2.373-1.064-2.373-2.373c0-1.308,1.064-2.373,2.373-2.373c0.186,0,0.371,0.021,0.549,0.064
	c0.197,0.046,0.395-0.076,0.442-0.272c0.046-0.197-0.076-0.395-0.272-0.442c-0.234-0.056-0.476-0.083-0.719-0.083
	c-1.713,0-3.107,1.394-3.107,3.106s1.394,3.106,3.107,3.106s3.106-1.394,3.106-3.106c0-0.702-0.234-1.375-0.666-1.921l1.146-1.147
	c0.732,0.855,1.135,1.934,1.135,3.068c0,2.604-2.119,4.722-4.722,4.722c-2.604,0-4.721-2.118-4.721-4.722
	c0-2.603,2.118-4.721,4.721-4.721c0.813,0,1.615,0.21,2.319,0.608c0.176,0.1,0.4,0.038,0.5-0.139c0.1-0.176,0.037-0.4-0.14-0.5
	c-0.813-0.46-1.74-0.703-2.68-0.703c-3.008,0-5.455,2.447-5.455,5.455s2.447,5.455,5.455,5.455s5.455-2.447,5.455-5.455
	c0-1.33-0.477-2.594-1.347-3.589l0.588-0.589c1.028,1.152,1.59,2.623,1.59,4.178c0,3.467-2.82,6.286-6.286,6.286
	c-3.467,0-6.287-2.819-6.287-6.286c0-3.466,2.82-6.287,6.287-6.287c1.18,0,2.33,0.329,3.325,0.951
	c0.172,0.107,0.398,0.055,0.506-0.117s0.055-0.398-0.117-0.505c-1.111-0.695-2.396-1.063-3.714-1.063
	c-3.871,0-7.021,3.149-7.021,7.021s3.149,7.021,7.021,7.021s7.021-3.149,7.021-7.021c0-1.752-0.638-3.407-1.804-4.698l1.143-1.143
	c1.47,1.598,2.275,3.663,2.275,5.841c0,4.762-3.874,8.636-8.635,8.636c-4.762,0-8.635-3.874-8.635-8.636
	c0-4.761,3.874-8.635,8.635-8.635c1.747,0,3.43,0.519,4.866,1.501c0.168,0.114,0.396,0.071,0.51-0.096
	c0.115-0.167,0.072-0.396-0.096-0.51c-1.559-1.066-3.385-1.629-5.28-1.629c-5.166,0-9.369,4.203-9.369,9.369
	s4.203,9.369,9.369,9.369s9.368-4.203,9.368-9.369c0-2.374-0.882-4.624-2.489-6.36l0.589-0.588c1.764,1.894,2.732,4.348,2.732,6.948
	c0,5.624-4.576,10.2-10.2,10.2c-5.625,0-10.201-4.576-10.201-10.2c0-5.625,4.576-10.201,10.201-10.201
	c2.194,0,4.284,0.686,6.044,1.983c0.164,0.121,0.394,0.085,0.514-0.078s0.086-0.393-0.078-0.513
	c-1.887-1.391-4.128-2.126-6.479-2.126c-2.921,0-5.667,1.138-7.732,3.203C1.137,8.399,0,11.145,0,14.065
	c0,2.921,1.137,5.667,3.203,7.731C5.268,23.863,8.014,25,10.935,25s5.667-1.137,7.731-3.203c2.065-2.064,3.203-4.811,3.203-7.731
	c0-2.796-1.045-5.435-2.948-7.468l0.385-0.384h2.588c0.097,0,0.19-0.039,0.259-0.107l2.74-2.74
	C24.998,3.261,25.029,3.104,24.973,2.966z M21.741,5.479h-1.702l0.939-0.939c0.144-0.143,0.144-0.375,0-0.519
	c-0.143-0.144-0.375-0.144-0.519,0L19.521,4.96V3.259l2.006-2.006v1.854c0,0.203,0.165,0.367,0.367,0.367h1.854L21.741,5.479z"/>
</svg>
