<?xml version="1.0" encoding="utf-8"?>
<!-- Generator: Adobe Illustrator 16.0.0, SVG Export Plug-In . SVG Version: 6.00 Build 0)  -->
<!DOCTYPE svg PUBLIC "-//W3C//DTD SVG 1.1//EN" "http://www.w3.org/Graphics/SVG/1.1/DTD/svg11.dtd">
<svg version="1.1" id="Capa_1" xmlns="http://www.w3.org/2000/svg" xmlns:xlink="http://www.w3.org/1999/xlink" x="0px" y="0px"
	 width="25px" height="25px" viewBox="0 0 25 25" enable-background="new 0 0 25 25" xml:space="preserve">
<g>
	<g>
		<g>
			<linearGradient id="SVGID_1_" gradientUnits="userSpaceOnUse" x1="9.8955" y1="22.2031" x2="4.7956" y2="14.2305">
				<stop  offset="0" style="stop-color:#231F20"/>
				<stop  offset="0.1969" style="stop-color:#605D5E"/>
				<stop  offset="0.4002" style="stop-color:#989697"/>
				<stop  offset="0.5885" style="stop-color:#C5C4C4"/>
				<stop  offset="0.7553" style="stop-color:#E5E4E4"/>
				<stop  offset="0.8946" style="stop-color:#F8F8F8"/>
				<stop  offset="0.9892" style="stop-color:#FFFFFF"/>
			</linearGradient>
			<path opacity="0.5" fill="url(#SVGID_1_)" d="M15.788,19.956c-0.137-0.147-0.387-0.308-0.756-0.476
				c-0.364-0.164-0.817-0.324-1.332-0.475c-0.518-0.153-1.109-0.299-1.749-0.434c-0.656-0.139-1.377-0.268-2.131-0.379
				c-0.792-0.117-1.639-0.218-2.507-0.292c-0.929-0.079-1.804-0.121-2.59-0.126c-0.81-0.005-1.525,0.03-2.1,0.104
				c0.017-0.002,0.033-0.005,0.051-0.007c0,0-0.001,0-0.001,0c0,0,0.001,0,0.001,0l-0.813,0.1c-0.333,0.041-0.622,0.094-0.858,0.158
				c-0.243,0.066-0.428,0.146-0.546,0.237c-0.121,0.093-0.171,0.197-0.139,0.313c0.033,0.119,0.151,0.247,0.362,0.385
				c0.043,0.028,0.091,0.058,0.142,0.086c0.021,0.012,0.046,0.024,0.069,0.036c0.028,0.016,0.055,0.03,0.085,0.046
				c0.002,0,0.005,0.002,0.007,0.004c0.03,0.014,0.063,0.028,0.094,0.044c0.03,0.014,0.058,0.028,0.088,0.041
				c0.034,0.016,0.071,0.03,0.106,0.046c0.027,0.012,0.052,0.022,0.079,0.034c0.005,0.001,0.011,0.004,0.016,0.005
				c0.038,0.016,0.079,0.031,0.118,0.047c0.034,0.012,0.067,0.025,0.102,0.039c0.039,0.015,0.081,0.029,0.123,0.043
				c0.029,0.011,0.056,0.021,0.086,0.031c0.01,0.003,0.021,0.008,0.031,0.011c0.039,0.015,0.081,0.026,0.123,0.04
				c0.044,0.016,0.086,0.029,0.132,0.043c0.042,0.014,0.084,0.026,0.127,0.04c0.032,0.009,0.063,0.02,0.097,0.028
				c0.023,0.009,0.048,0.016,0.073,0.021c0.007,0.004,0.012,0.005,0.019,0.007c0.005,0.001,0.01,0.003,0.016,0.004
				c0.014,0.004,0.028,0.01,0.043,0.013c0.05,0.015,0.102,0.028,0.154,0.043c0.019,0.005,0.038,0.011,0.057,0.016
				c0.015,0.004,0.03,0.009,0.045,0.013c0.019,0.005,0.037,0.01,0.056,0.016c0.053,0.014,0.107,0.027,0.162,0.042
				c0.015,0.004,0.03,0.007,0.046,0.012C2.988,19.917,3,19.92,3.011,19.923c0.018,0.004,0.034,0.009,0.051,0.013
				c0.044,0.012,0.089,0.022,0.134,0.034c0.03,0.007,0.061,0.015,0.091,0.021c0.012,0.003,0.024,0.006,0.035,0.008
				c0.004,0.002,0.007,0.003,0.01,0.003c0.046,0.011,0.092,0.021,0.139,0.032c0.041,0.01,0.081,0.02,0.122,0.028
				c0.009,0.002,0.018,0.003,0.026,0.005c0.013,0.003,0.026,0.007,0.04,0.01c0.019,0.004,0.039,0.009,0.058,0.013
				c0.042,0.009,0.083,0.019,0.125,0.027c0.041,0.009,0.083,0.018,0.124,0.027c0.009,0.001,0.017,0.003,0.025,0.005
				c0.03,0.006,0.06,0.013,0.09,0.019c0.038,0.007,0.075,0.016,0.113,0.022c0.039,0.008,0.077,0.016,0.115,0.023
				c0.002,0,0.004,0.001,0.006,0.001c0.008,0.002,0.017,0.004,0.025,0.005c0.027,0.005,0.056,0.012,0.083,0.017
				c0.036,0.007,0.072,0.015,0.108,0.021c0.037,0.007,0.073,0.015,0.11,0.021c0.011,0.003,0.022,0.004,0.035,0.008
				c0.004,0,0.01,0.001,0.015,0.002c0.02,0.004,0.04,0.007,0.06,0.011c0.037,0.007,0.073,0.014,0.11,0.02
				c0.036,0.007,0.07,0.014,0.106,0.02c0.025,0.005,0.051,0.009,0.076,0.013c0.001,0.001,0.003,0.001,0.006,0.002
				c0.001,0,0.002,0,0.004,0c0.007,0.001,0.014,0.003,0.021,0.005c0.035,0.006,0.071,0.011,0.107,0.019
				c0.035,0.006,0.07,0.012,0.107,0.018c0.033,0.005,0.066,0.011,0.1,0.017c0.005,0.001,0.01,0.002,0.016,0.003
				c0.004,0.001,0.01,0.002,0.014,0.002c0.024,0.004,0.047,0.008,0.071,0.011c0.033,0.006,0.067,0.012,0.101,0.017
				c0.033,0.006,0.067,0.011,0.101,0.016c0.025,0.004,0.05,0.009,0.075,0.013c0.005,0,0.01,0.001,0.015,0.002
				c0.003,0,0.006,0,0.009,0.001c0.033,0.005,0.067,0.011,0.1,0.016c0.033,0.005,0.067,0.01,0.1,0.015
				c0.033,0.005,0.066,0.01,0.1,0.016c0.014,0.002,0.028,0.003,0.042,0.006c0.007,0,0.016,0.002,0.023,0.003
				c0.01,0.001,0.021,0.003,0.031,0.004c0.032,0.005,0.064,0.01,0.098,0.014c0.032,0.005,0.064,0.01,0.097,0.015
				c0.032,0.004,0.064,0.008,0.097,0.013c0.007,0.001,0.015,0.002,0.023,0.004c0.01,0.001,0.02,0.002,0.03,0.003
				c0.014,0.002,0.028,0.004,0.042,0.006c0.032,0.005,0.065,0.009,0.097,0.013c0.032,0.005,0.064,0.009,0.096,0.013
				s0.064,0.009,0.096,0.013c0.005,0.001,0.012,0.002,0.017,0.002c0.007,0.001,0.013,0.002,0.021,0.003
				c0.019,0.002,0.039,0.004,0.058,0.007c0.032,0.004,0.064,0.008,0.096,0.012s0.064,0.008,0.095,0.012
				c0.032,0.004,0.064,0.008,0.096,0.011c0.003,0.001,0.007,0.001,0.01,0.001c0.007,0.001,0.014,0.002,0.021,0.002
				c0.022,0.004,0.044,0.006,0.066,0.009c0.032,0.003,0.064,0.007,0.097,0.011s0.064,0.007,0.097,0.011
				c0.032,0.003,0.064,0.007,0.097,0.011c0.001,0,0.002,0,0.002,0c0.004,0.001,0.009,0.001,0.013,0.002
				c0.027,0.002,0.055,0.005,0.082,0.008c0.033,0.003,0.065,0.007,0.097,0.01s0.064,0.007,0.097,0.01
				c0.03,0.003,0.06,0.007,0.089,0.009c0.002,0,0.003,0.001,0.005,0.001c0,0,0.001,0,0.002,0c0,0,0,0,0,0
				c0.034,0.004,0.068,0.007,0.101,0.01c0.034,0.004,0.067,0.007,0.102,0.01s0.067,0.006,0.101,0.009
				c0.014,0.001,0.028,0.003,0.042,0.004c0.005,0.001,0.011,0.001,0.017,0.002c0.014,0.001,0.028,0.002,0.042,0.003
				c0.035,0.003,0.069,0.006,0.104,0.009c0.034,0.004,0.069,0.006,0.104,0.009c0.029,0.002,0.059,0.005,0.088,0.007
				c0.004,0.001,0.008,0.001,0.012,0.001c0.001,0,0.001,0,0.002,0c0.034,0.004,0.068,0.006,0.103,0.009
				c0.035,0.003,0.071,0.005,0.106,0.008c0.036,0.002,0.071,0.006,0.106,0.009c0.005,0,0.012,0,0.018,0.001
				c0.008,0,0.016,0.001,0.025,0.001c0.021,0.002,0.042,0.003,0.063,0.004c0.036,0.003,0.071,0.005,0.105,0.008
				c0.039,0.003,0.077,0.005,0.114,0.007c0.013,0.001,0.024,0.002,0.036,0.002c0.011,0.001,0.02,0.001,0.03,0.002
				c0.016,0.001,0.032,0.002,0.048,0.003c0.038,0.002,0.076,0.006,0.113,0.007c0.038,0.003,0.075,0.004,0.112,0.007
				c0.012,0,0.025,0.001,0.039,0.002c0.009,0,0.019,0,0.029,0.001c0.018,0.001,0.035,0.002,0.053,0.003
				c0.04,0.001,0.08,0.004,0.119,0.006c0.04,0.002,0.079,0.003,0.119,0.005c0.007,0.001,0.015,0.001,0.022,0.001
				c0.009,0,0.016,0,0.023,0.001c0.024,0.001,0.047,0.002,0.071,0.003c0.043,0.001,0.086,0.003,0.129,0.005
				c0.037,0.002,0.074,0.003,0.111,0.004c0.004,0,0.007,0,0.011,0c0.002,0.001,0.003,0.001,0.005,0.001
				c0.042,0.001,0.084,0.002,0.126,0.003c0.042,0.001,0.084,0.002,0.125,0.003c0.006,0,0.012,0.001,0.017,0.001
				c0.005,0,0.011,0,0.017,0c0.006,0,0.011,0,0.016,0s0.011,0,0.017,0.001c0.391,0.009,0.782,0.016,1.172,0.024
				c0,0,0.001,0.001,0.002,0.001c0.005,0,0.011,0,0.017,0c-0.08-0.002-0.161-0.005-0.241-0.007c0.576,0.017,1.121,0.016,1.617-0.003
				c0.773-0.031,1.364-0.104,1.782-0.203c0.389-0.095,0.634-0.213,0.74-0.35C15.951,20.255,15.931,20.11,15.788,19.956z"/>
			<g>
				
					<radialGradient id="SVGID_2_" cx="212.1162" cy="33.0273" r="27.3947" gradientTransform="matrix(0.3374 -0.0883 0.0883 0.3374 -58.26 19.0957)" gradientUnits="userSpaceOnUse">
					<stop  offset="0" style="stop-color:#C4C4C4"/>
					<stop  offset="0.5614" style="stop-color:#C1C2C2"/>
					<stop  offset="0.9032" style="stop-color:#B9BABA"/>
					<stop  offset="1" style="stop-color:#B5B6B6"/>
				</radialGradient>
				<path fill="url(#SVGID_2_)" d="M14.813,20.743c-0.092,0.01-0.186,0.016-0.279,0.018c-0.003,0.001-0.005,0.001-0.007,0.001
					c-0.091,0.003-0.182,0.003-0.272-0.001c-0.007,0-0.011,0-0.017-0.001c-0.09-0.004-0.18-0.009-0.271-0.02
					c-0.009,0-0.016-0.001-0.023-0.002c-0.091-0.009-0.18-0.021-0.271-0.036c-0.008-0.002-0.016-0.003-0.022-0.004
					c-0.092-0.016-0.184-0.034-0.276-0.056c-0.005-0.001-0.011-0.002-0.017-0.004c-0.097-0.022-0.191-0.047-0.289-0.076
					c-0.002,0-0.005-0.001-0.007-0.001c-0.096-0.029-0.192-0.061-0.289-0.095c-0.005-0.001-0.009-0.003-0.014-0.004
					c-0.098-0.035-0.196-0.073-0.295-0.114c-0.105-0.043-0.209-0.091-0.314-0.142c-0.002-0.001-0.004-0.001-0.006-0.002
					c-0.103-0.05-0.206-0.103-0.308-0.158c-0.004-0.003-0.008-0.004-0.012-0.006c-0.101-0.055-0.2-0.113-0.3-0.174
					c-0.006-0.004-0.013-0.008-0.02-0.013c-0.099-0.06-0.196-0.123-0.293-0.188c-0.007-0.006-0.014-0.01-0.021-0.014
					c-0.097-0.066-0.193-0.135-0.289-0.206c-0.009-0.006-0.018-0.013-0.026-0.02c-0.096-0.072-0.192-0.146-0.288-0.224
					c-0.004-0.005-0.009-0.009-0.014-0.013c-0.096-0.08-0.193-0.161-0.288-0.246c-0.003-0.003-0.008-0.006-0.011-0.009
					c-0.097-0.087-0.193-0.176-0.289-0.267c-0.004-0.006-0.009-0.01-0.013-0.014c-0.096-0.093-0.191-0.188-0.285-0.287
					c-0.006-0.007-0.013-0.013-0.019-0.02c-0.093-0.098-0.185-0.199-0.276-0.301c-0.005-0.007-0.01-0.013-0.015-0.018
					c-0.09-0.104-0.179-0.209-0.267-0.316c-0.006-0.008-0.012-0.015-0.018-0.021c0-0.001-0.001-0.002-0.002-0.004
					c-0.085-0.103-0.167-0.21-0.25-0.319c-0.011-0.014-0.021-0.028-0.032-0.043c-0.082-0.108-0.162-0.22-0.241-0.335
					c-0.009-0.014-0.018-0.026-0.027-0.04c-0.076-0.108-0.149-0.219-0.221-0.333c-0.01-0.016-0.02-0.031-0.031-0.047
					c-0.071-0.112-0.139-0.225-0.207-0.34c-0.013-0.023-0.028-0.047-0.042-0.069c-0.066-0.115-0.132-0.232-0.196-0.35
					c-0.011-0.021-0.022-0.041-0.033-0.063c-0.043-0.08-0.085-0.163-0.126-0.246c-0.035-0.068-0.069-0.137-0.103-0.207
					c-0.034-0.07-0.067-0.141-0.099-0.212c-0.034-0.072-0.067-0.145-0.1-0.218c-0.03-0.068-0.057-0.137-0.086-0.205
					c-0.033-0.077-0.065-0.155-0.096-0.233c-0.026-0.066-0.051-0.133-0.076-0.199c-0.03-0.081-0.062-0.162-0.09-0.245
					c-0.023-0.067-0.045-0.136-0.068-0.204c-0.027-0.081-0.055-0.162-0.08-0.243c-0.023-0.074-0.043-0.149-0.065-0.224
					c-0.022-0.076-0.045-0.152-0.066-0.23c-0.026-0.094-0.048-0.188-0.071-0.283c-0.014-0.058-0.03-0.115-0.043-0.173
					c-0.036-0.154-0.068-0.31-0.097-0.465c-0.138-0.742-0.197-1.453-0.185-2.122C6.375,9.387,6.457,8.78,6.598,8.228
					c0.137-0.535,0.33-1.017,0.569-1.439c0.092-0.161,0.192-0.311,0.296-0.455c0.094-0.128,0.19-0.252,0.293-0.366
					c0.073-0.08,0.148-0.156,0.225-0.229c0,0.001,0,0.001,0,0.001s0,0,0-0.001L7.225,6.45C6.916,6.743,6.64,7.091,6.405,7.494
					C6.164,7.909,5.968,8.38,5.826,8.902c-0.147,0.537-0.234,1.124-0.255,1.754c-0.021,0.644,0.027,1.326,0.154,2.037
					c0.026,0.148,0.056,0.296,0.088,0.442c0.014,0.063,0.03,0.125,0.044,0.188c0.019,0.077,0.037,0.156,0.057,0.233
					c0.001,0.005,0.002,0.01,0.004,0.016c0.021,0.075,0.042,0.15,0.063,0.225c0.021,0.07,0.039,0.141,0.06,0.21
					c0.023,0.077,0.049,0.152,0.075,0.229c0.018,0.056,0.035,0.112,0.054,0.169c0.003,0.01,0.008,0.021,0.011,0.03
					c0.026,0.078,0.055,0.153,0.083,0.229c0.024,0.065,0.048,0.13,0.072,0.193c0.029,0.072,0.06,0.145,0.089,0.216
					c0.021,0.051,0.041,0.104,0.063,0.154c0.007,0.017,0.015,0.033,0.022,0.05c0.029,0.067,0.061,0.133,0.091,0.199
					c0.033,0.07,0.064,0.141,0.098,0.21c0.031,0.063,0.063,0.125,0.095,0.188c0.024,0.048,0.047,0.098,0.072,0.145
					c0.018,0.034,0.037,0.068,0.055,0.103c0.005,0.01,0.009,0.019,0.015,0.028c0.004,0.007,0.008,0.015,0.011,0.021
					c0.011,0.02,0.022,0.04,0.033,0.06c0.038,0.069,0.078,0.14,0.117,0.208c0.014,0.024,0.029,0.049,0.043,0.073
					c0.011,0.02,0.022,0.039,0.034,0.059c0.015,0.023,0.028,0.048,0.043,0.071c0.041,0.067,0.082,0.135,0.124,0.201
					c0.012,0.019,0.023,0.037,0.036,0.055c0.009,0.015,0.018,0.028,0.027,0.042C7.417,16.959,7.43,16.98,7.443,17
					c0.034,0.052,0.069,0.103,0.104,0.154c0.023,0.035,0.047,0.068,0.071,0.103c0.009,0.014,0.018,0.026,0.027,0.039
					c0.002,0.005,0.004,0.008,0.008,0.012c0.036,0.051,0.072,0.101,0.108,0.149c0.031,0.044,0.063,0.087,0.096,0.13
					c0.006,0.008,0.014,0.018,0.021,0.026c0.01,0.014,0.02,0.027,0.031,0.04c0.015,0.021,0.03,0.04,0.045,0.06
					c0.033,0.042,0.065,0.083,0.099,0.125c0.032,0.04,0.065,0.08,0.098,0.12c0.006,0.008,0.013,0.015,0.02,0.023
					c0.023,0.027,0.047,0.057,0.071,0.085c0.03,0.035,0.06,0.069,0.09,0.104c0.03,0.033,0.061,0.068,0.09,0.102
					c0.001,0.002,0.003,0.005,0.005,0.006c0.007,0.008,0.014,0.015,0.021,0.022c0.021,0.024,0.044,0.049,0.066,0.073
					c0.029,0.031,0.058,0.062,0.086,0.093c0.029,0.03,0.058,0.061,0.087,0.091c0.008,0.01,0.018,0.019,0.027,0.028
					c0.004,0.004,0.008,0.008,0.012,0.013c0.016,0.017,0.032,0.032,0.048,0.048c0.029,0.03,0.058,0.06,0.087,0.089
					c0.029,0.027,0.057,0.055,0.085,0.083c0.021,0.019,0.041,0.038,0.062,0.058c0.001,0.001,0.003,0.003,0.004,0.004
					c0.001,0.002,0.002,0.003,0.004,0.004c0.005,0.005,0.01,0.01,0.016,0.016c0.028,0.026,0.057,0.054,0.085,0.079
					c0.028,0.027,0.058,0.053,0.086,0.078c0.027,0.024,0.054,0.048,0.081,0.07c0.005,0.005,0.008,0.009,0.013,0.012
					c0.003,0.003,0.007,0.006,0.011,0.011c0.019,0.017,0.038,0.032,0.057,0.048c0.027,0.024,0.054,0.047,0.082,0.069
					c0.027,0.023,0.055,0.045,0.082,0.067c0.02,0.017,0.041,0.032,0.061,0.049c0.004,0.003,0.008,0.006,0.012,0.009
					c0.002,0.002,0.004,0.005,0.007,0.007c0.027,0.021,0.054,0.042,0.081,0.063s0.054,0.042,0.081,0.063s0.054,0.04,0.081,0.061
					c0.011,0.008,0.023,0.016,0.035,0.023c0.006,0.006,0.013,0.011,0.019,0.015c0.009,0.007,0.017,0.013,0.026,0.019
					c0.026,0.019,0.053,0.038,0.079,0.056c0.027,0.019,0.053,0.038,0.08,0.056c0.026,0.019,0.053,0.036,0.08,0.054
					c0.006,0.005,0.013,0.008,0.02,0.012c0.008,0.006,0.016,0.011,0.024,0.017c0.012,0.008,0.023,0.016,0.036,0.022
					c0.026,0.018,0.053,0.034,0.079,0.051s0.053,0.033,0.079,0.049c0.026,0.017,0.053,0.033,0.079,0.049
					c0.005,0.003,0.01,0.005,0.015,0.008c0.005,0.003,0.011,0.007,0.017,0.01c0.016,0.01,0.032,0.02,0.048,0.027
					c0.026,0.016,0.052,0.031,0.079,0.046c0.026,0.015,0.053,0.029,0.079,0.043c0.026,0.015,0.053,0.029,0.08,0.043
					c0.002,0.002,0.005,0.003,0.008,0.005c0.006,0.002,0.011,0.005,0.017,0.008c0.018,0.01,0.036,0.021,0.055,0.029
					c0.027,0.014,0.053,0.027,0.081,0.04c0.026,0.014,0.053,0.027,0.08,0.04c0.026,0.012,0.053,0.025,0.08,0.038l0,0l0,0l0,0
					c0,0,0.001,0,0.002,0.001c0.003,0.001,0.007,0.002,0.011,0.004c0.022,0.011,0.045,0.021,0.067,0.031
					c0.027,0.012,0.054,0.023,0.081,0.036c0.027,0.01,0.053,0.022,0.08,0.034c0.025,0.01,0.051,0.02,0.075,0.029
					c0.001,0,0.002,0.001,0.003,0.001c0.001,0.002,0.001,0.002,0.002,0.002l0,0c0.029,0.011,0.057,0.022,0.085,0.033
					c0.028,0.011,0.057,0.021,0.085,0.031c0.028,0.011,0.056,0.021,0.084,0.03c0.012,0.004,0.023,0.007,0.035,0.012
					c0.004,0.002,0.009,0.003,0.014,0.005c0.011,0.004,0.023,0.008,0.035,0.011c0.029,0.011,0.058,0.021,0.087,0.029
					c0.029,0.009,0.059,0.018,0.087,0.026c0.025,0.008,0.05,0.014,0.075,0.021c0.003,0.001,0.006,0.002,0.01,0.003
					c0,0,0.001,0,0.002,0c0.028,0.008,0.057,0.017,0.086,0.023c0.03,0.009,0.061,0.016,0.09,0.023
					c0.03,0.007,0.061,0.014,0.09,0.021c0.005,0.001,0.011,0.002,0.016,0.003c0.006,0.002,0.014,0.003,0.021,0.005
					c0.019,0.004,0.036,0.008,0.054,0.012c0.029,0.006,0.061,0.011,0.09,0.018c0.032,0.006,0.064,0.011,0.097,0.017
					c0.011,0.002,0.021,0.003,0.03,0.005c0.008,0.001,0.017,0.003,0.025,0.004c0.014,0.002,0.027,0.004,0.041,0.007
					c0.032,0.005,0.064,0.009,0.098,0.013c0.031,0.004,0.063,0.008,0.096,0.012c0.011,0.001,0.021,0.002,0.032,0.002
					c0.009,0.001,0.017,0.002,0.024,0.003c0.016,0.001,0.03,0.003,0.045,0.005c0.034,0.003,0.068,0.005,0.103,0.007
					s0.067,0.004,0.102,0.005c0.007,0,0.014,0,0.02,0c0.007,0.001,0.014,0.001,0.021,0.001c0.021,0.001,0.04,0.001,0.061,0.001
					c0.037,0.001,0.074,0.001,0.111,0.001c0.033-0.001,0.064-0.001,0.097-0.002c0.003,0,0.006,0,0.009,0c0.002,0,0.004,0,0.005,0
					c0.037-0.002,0.073-0.004,0.109-0.005c0.036-0.003,0.072-0.005,0.108-0.008c0.005-0.002,0.01-0.002,0.015-0.003
					c0.005,0,0.01,0,0.016-0.001c0.004,0,0.008,0,0.012-0.001c0.007,0,0.011-0.001,0.015-0.001c0.34-0.034,0.68-0.069,1.019-0.103
					c0,0,0.001,0,0.003,0C14.805,20.744,14.809,20.743,14.813,20.743z"/>
				
					<radialGradient id="SVGID_3_" cx="226.1846" cy="25.4385" r="50.3459" gradientTransform="matrix(0.3374 -0.0883 0.0883 0.3374 -58.26 19.0957)" gradientUnits="userSpaceOnUse">
					<stop  offset="0" style="stop-color:#FFFFFF"/>
					<stop  offset="0.5112" style="stop-color:#FCFDFD"/>
					<stop  offset="0.8223" style="stop-color:#F4F5F5"/>
					<stop  offset="1" style="stop-color:#EBECEC"/>
				</radialGradient>
				<path fill="url(#SVGID_3_)" d="M18.136,12.078c-0.248-0.831-0.577-1.619-0.965-2.345c-0.389-0.73-0.847-1.414-1.35-2.024
					c-0.517-0.627-1.094-1.189-1.708-1.65c-0.646-0.485-1.346-0.866-2.074-1.098c-0.782-0.248-1.531-0.303-2.219-0.169
					C9.08,4.934,8.411,5.294,7.859,5.858C7.268,6.465,6.818,7.302,6.57,8.34c-0.262,1.098-0.29,2.395-0.024,3.821
					c0.274,1.467,0.82,2.871,1.563,4.117c0.733,1.229,1.631,2.259,2.604,3.023c0.93,0.73,1.902,1.2,2.844,1.38
					c0.881,0.167,1.72,0.08,2.468-0.269c0.691-0.323,1.24-0.841,1.649-1.477c0.383-0.596,0.647-1.302,0.797-2.067
					c0.143-0.725,0.186-1.514,0.126-2.331C18.541,13.75,18.391,12.922,18.136,12.078z"/>
				
					<radialGradient id="SVGID_4_" cx="1291.6006" cy="-316.291" r="127.2772" gradientTransform="matrix(0.0911 -0.0238 0.0238 0.0911 -97.1078 68.5341)" gradientUnits="userSpaceOnUse">
					<stop  offset="0" style="stop-color:#FF2B2B"/>
					<stop  offset="0.1251" style="stop-color:#FA2A2A"/>
					<stop  offset="0.2754" style="stop-color:#EB2929"/>
					<stop  offset="0.4387" style="stop-color:#D32625"/>
					<stop  offset="0.6111" style="stop-color:#B12221"/>
					<stop  offset="0.7909" style="stop-color:#861C1C"/>
					<stop  offset="0.9741" style="stop-color:#511615"/>
					<stop  offset="1" style="stop-color:#491514"/>
				</radialGradient>
				<path fill="url(#SVGID_4_)" d="M17.73,12.125c-0.231-0.771-0.537-1.502-0.896-2.175c-0.36-0.679-0.785-1.313-1.253-1.879
					c-0.479-0.583-1.015-1.104-1.585-1.532c-0.598-0.45-1.248-0.804-1.925-1.019c-0.726-0.229-1.42-0.28-2.059-0.157
					c-0.687,0.133-1.308,0.466-1.82,0.99c-0.549,0.563-0.966,1.34-1.196,2.303c-0.243,1.019-0.269,2.223-0.022,3.547
					c0.254,1.36,0.762,2.665,1.45,3.82c0.682,1.142,1.514,2.097,2.417,2.808c0.863,0.677,1.765,1.112,2.64,1.279
					c0.817,0.155,1.597,0.074,2.291-0.25c0.641-0.299,1.151-0.779,1.53-1.37c0.354-0.553,0.601-1.207,0.741-1.918
					c0.132-0.673,0.171-1.405,0.116-2.163C18.107,13.678,17.965,12.91,17.73,12.125z"/>
				
					<radialGradient id="SVGID_5_" cx="201.7754" cy="33.7227" r="13.8556" gradientTransform="matrix(0.3374 -0.0883 0.0883 0.3374 -58.26 19.0957)" gradientUnits="userSpaceOnUse">
					<stop  offset="0" style="stop-color:#FFFFFF"/>
					<stop  offset="0.5112" style="stop-color:#FCFDFD"/>
					<stop  offset="0.8223" style="stop-color:#F4F5F5"/>
					<stop  offset="1" style="stop-color:#EBECEC"/>
				</radialGradient>
				<path fill="url(#SVGID_5_)" d="M16.626,12.21c-0.168-0.563-0.392-1.096-0.654-1.586c-0.263-0.495-0.572-0.958-0.913-1.372
					c-0.351-0.424-0.741-0.805-1.157-1.117c-0.437-0.328-0.91-0.587-1.403-0.744c-0.53-0.167-1.037-0.204-1.502-0.114
					C10.494,7.374,10.041,7.618,9.668,8c-0.4,0.411-0.706,0.978-0.873,1.679c-0.177,0.745-0.196,1.623-0.016,2.587
					c0.185,0.993,0.555,1.944,1.059,2.787c0.496,0.833,1.104,1.53,1.763,2.048c0.629,0.494,1.287,0.813,1.926,0.934
					c0.596,0.113,1.164,0.055,1.671-0.182c0.467-0.22,0.839-0.568,1.116-1c0.258-0.402,0.438-0.881,0.539-1.398
					c0.097-0.492,0.126-1.026,0.086-1.579C16.9,13.343,16.797,12.782,16.626,12.21z"/>
				
					<radialGradient id="SVGID_6_" cx="1291.5986" cy="-316.2939" r="127.2871" gradientTransform="matrix(0.0911 -0.0238 0.0238 0.0911 -97.1078 68.5341)" gradientUnits="userSpaceOnUse">
					<stop  offset="0" style="stop-color:#FF2B2B"/>
					<stop  offset="0.1251" style="stop-color:#FA2A2A"/>
					<stop  offset="0.2754" style="stop-color:#EB2929"/>
					<stop  offset="0.4387" style="stop-color:#D32625"/>
					<stop  offset="0.6111" style="stop-color:#B12221"/>
					<stop  offset="0.7909" style="stop-color:#861C1C"/>
					<stop  offset="0.9741" style="stop-color:#511615"/>
					<stop  offset="1" style="stop-color:#491514"/>
				</radialGradient>
				<path fill="url(#SVGID_6_)" d="M15.892,12.19c-0.13-0.437-0.304-0.851-0.507-1.23c-0.204-0.384-0.444-0.743-0.708-1.063
					c-0.272-0.33-0.575-0.624-0.897-0.866c-0.338-0.254-0.706-0.455-1.088-0.577c-0.411-0.13-0.805-0.158-1.166-0.089
					c-0.388,0.076-0.74,0.264-1.029,0.561C10.186,9.243,9.95,9.683,9.82,10.228c-0.138,0.577-0.152,1.258-0.013,2.006
					c0.144,0.771,0.431,1.508,0.82,2.161c0.385,0.646,0.856,1.187,1.367,1.588c0.488,0.384,0.999,0.63,1.494,0.724
					c0.463,0.089,0.903,0.043,1.296-0.142c0.362-0.169,0.65-0.44,0.865-0.774c0.201-0.313,0.339-0.683,0.418-1.085
					c0.075-0.381,0.097-0.794,0.066-1.224C16.104,13.067,16.023,12.634,15.892,12.19z"/>
				
					<radialGradient id="SVGID_7_" cx="202.791" cy="33.4746" r="6.5295" gradientTransform="matrix(0.3374 -0.0883 0.0883 0.3374 -58.26 19.0957)" gradientUnits="userSpaceOnUse">
					<stop  offset="0" style="stop-color:#FFFFFF"/>
					<stop  offset="0.5112" style="stop-color:#FCFDFD"/>
					<stop  offset="0.8223" style="stop-color:#F4F5F5"/>
					<stop  offset="1" style="stop-color:#EBECEC"/>
				</radialGradient>
				<path fill="url(#SVGID_7_)" d="M14.927,12.275c-0.079-0.266-0.185-0.517-0.309-0.748c-0.124-0.233-0.27-0.452-0.43-0.646
					c-0.165-0.2-0.35-0.379-0.545-0.526c-0.206-0.154-0.429-0.276-0.663-0.351c-0.248-0.079-0.488-0.096-0.707-0.054
					c-0.236,0.045-0.45,0.16-0.625,0.34c-0.189,0.194-0.333,0.461-0.411,0.793c-0.083,0.35-0.092,0.764-0.008,1.219
					c0.087,0.468,0.262,0.916,0.499,1.313c0.235,0.392,0.521,0.721,0.831,0.966c0.297,0.232,0.606,0.382,0.907,0.438
					c0.28,0.054,0.549,0.026,0.788-0.086c0.22-0.102,0.396-0.268,0.525-0.47c0.122-0.19,0.207-0.415,0.255-0.66
					c0.045-0.231,0.06-0.482,0.04-0.743C15.056,12.809,15.007,12.545,14.927,12.275z"/>
				
					<radialGradient id="SVGID_8_" cx="1291.6064" cy="-316.2861" r="127.2565" gradientTransform="matrix(0.0911 -0.0238 0.0238 0.0911 -97.1078 68.5341)" gradientUnits="userSpaceOnUse">
					<stop  offset="0" style="stop-color:#FF2B2B"/>
					<stop  offset="0.1251" style="stop-color:#FA2A2A"/>
					<stop  offset="0.2754" style="stop-color:#EB2929"/>
					<stop  offset="0.4387" style="stop-color:#D32625"/>
					<stop  offset="0.6111" style="stop-color:#B12221"/>
					<stop  offset="0.7909" style="stop-color:#861C1C"/>
					<stop  offset="0.9741" style="stop-color:#511615"/>
					<stop  offset="1" style="stop-color:#491514"/>
				</radialGradient>
				<path fill="url(#SVGID_8_)" d="M14.1,12.343c-0.035-0.113-0.079-0.22-0.132-0.317c-0.052-0.1-0.114-0.191-0.183-0.275
					c-0.07-0.085-0.148-0.16-0.231-0.223c-0.088-0.065-0.182-0.117-0.281-0.148c-0.105-0.034-0.207-0.041-0.3-0.023
					c-0.101,0.02-0.191,0.068-0.266,0.145c-0.08,0.082-0.141,0.196-0.175,0.336c-0.035,0.148-0.04,0.324-0.003,0.518
					c0.037,0.198,0.111,0.389,0.211,0.558c0.1,0.167,0.221,0.306,0.353,0.41c0.127,0.099,0.258,0.162,0.386,0.187
					c0.119,0.022,0.233,0.011,0.334-0.036c0.094-0.044,0.168-0.113,0.223-0.2c0.053-0.081,0.088-0.177,0.11-0.28
					c0.019-0.098,0.024-0.204,0.017-0.315C14.153,12.568,14.133,12.456,14.1,12.343z"/>
				
					<radialGradient id="SVGID_9_" cx="1291.6094" cy="-316.3242" r="127.3682" gradientTransform="matrix(0.0911 -0.0238 0.0238 0.0911 -97.1078 68.5341)" gradientUnits="userSpaceOnUse">
					<stop  offset="0" style="stop-color:#FF2B2B"/>
					<stop  offset="0.1251" style="stop-color:#FA2A2A"/>
					<stop  offset="0.2754" style="stop-color:#EB2929"/>
					<stop  offset="0.4387" style="stop-color:#D32625"/>
					<stop  offset="0.6111" style="stop-color:#B12221"/>
					<stop  offset="0.7909" style="stop-color:#861C1C"/>
					<stop  offset="0.9741" style="stop-color:#511615"/>
					<stop  offset="1" style="stop-color:#491514"/>
				</radialGradient>
				<path fill="url(#SVGID_9_)" d="M13.692,12.376c-0.012-0.038-0.027-0.075-0.045-0.109c-0.019-0.034-0.04-0.065-0.063-0.095
					c-0.024-0.029-0.051-0.055-0.08-0.076c-0.03-0.023-0.063-0.041-0.097-0.052c-0.037-0.012-0.072-0.015-0.104-0.009
					c-0.035,0.008-0.065,0.024-0.092,0.051c-0.027,0.028-0.049,0.067-0.06,0.116c-0.013,0.052-0.015,0.111-0.002,0.179
					c0.013,0.069,0.039,0.134,0.073,0.192c0.035,0.058,0.077,0.106,0.122,0.142c0.044,0.034,0.089,0.057,0.134,0.064
					c0.04,0.009,0.08,0.004,0.115-0.013c0.032-0.015,0.058-0.039,0.077-0.068c0.018-0.028,0.03-0.062,0.037-0.098
					c0.007-0.034,0.009-0.07,0.006-0.108C13.711,12.455,13.704,12.417,13.692,12.376z"/>
			</g>
			<linearGradient id="SVGID_10_" gradientUnits="userSpaceOnUse" x1="12.7778" y1="13.8828" x2="18.1425" y2="16.8316">
				<stop  offset="0" style="stop-color:#231F20"/>
				<stop  offset="0.0927" style="stop-color:#2C292A"/>
				<stop  offset="0.2481" style="stop-color:#464343"/>
				<stop  offset="0.4473" style="stop-color:#706D6E"/>
				<stop  offset="0.6825" style="stop-color:#A9A8A8"/>
				<stop  offset="0.9451" style="stop-color:#F2F2F2"/>
				<stop  offset="0.9892" style="stop-color:#FFFFFF"/>
			</linearGradient>
			<path opacity="0.5" fill="url(#SVGID_10_)" d="M14.216,12.426c0,0.007,0.012,0.024,0.037,0.051
				c0.119,0.284,1.357,2.472,2.243,3.999c0.018,0.238,0.218,0.748,1.071,2.289c0.124-0.196,0.24-0.402,0.347-0.618
				c-0.98-1.619-1.262-1.928-1.361-1.882c-0.813-1.392-1.935-3.272-2.234-3.721"/>
			<g>
				<g>
					
						<linearGradient id="SVGID_11_" gradientUnits="userSpaceOnUse" x1="8.7104" y1="-68.6812" x2="8.7104" y2="-66.4958" gradientTransform="matrix(0.9298 -0.368 0.368 0.9298 38.665 74.2021)">
						<stop  offset="0" style="stop-color:#FF2B2B"/>
						<stop  offset="0.1095" style="stop-color:#F52A2A"/>
						<stop  offset="0.2931" style="stop-color:#DB2726"/>
						<stop  offset="0.5282" style="stop-color:#B12221"/>
						<stop  offset="0.8028" style="stop-color:#771B1A"/>
						<stop  offset="1" style="stop-color:#491514"/>
					</linearGradient>
					<path fill="url(#SVGID_11_)" d="M20.069,9.79c0,0-0.735-0.355,0.743-1.68c1.478-1.325,3.929-3.671,2.618,0.246L20.069,9.79z"/>
					
						<linearGradient id="SVGID_12_" gradientUnits="userSpaceOnUse" x1="8.644" y1="-701.123" x2="8.644" y2="-699.132" gradientTransform="matrix(0.9298 -0.368 -0.368 -0.9298 -243.2905 -638.2148)">
						<stop  offset="0" style="stop-color:#FF2B2B"/>
						<stop  offset="0.1095" style="stop-color:#F52A2A"/>
						<stop  offset="0.2931" style="stop-color:#DB2726"/>
						<stop  offset="0.5282" style="stop-color:#B12221"/>
						<stop  offset="0.8028" style="stop-color:#771B1A"/>
						<stop  offset="1" style="stop-color:#491514"/>
					</linearGradient>
					<path fill="url(#SVGID_12_)" d="M19.984,9.717c0,0,0.148,0.646,2.132,0.603c1.985-0.046,4.106-0.224,1.354-1.891L19.984,9.717z
						"/>
					
						<linearGradient id="SVGID_13_" gradientUnits="userSpaceOnUse" x1="1274.6543" y1="183.2207" x2="1274.6543" y2="183.5285" gradientTransform="matrix(-0.9298 0.368 0.2086 0.5272 1163.0059 -554.332)">
						<stop  offset="0" style="stop-color:#B6B8BA"/>
						<stop  offset="0.111" style="stop-color:#C0C1C3"/>
						<stop  offset="0.2971" style="stop-color:#DADBDC"/>
						<stop  offset="0.5108" style="stop-color:#FFFFFF"/>
						<stop  offset="0.5996" style="stop-color:#DCDCDC"/>
						<stop  offset="0.7975" style="stop-color:#838182"/>
						<stop  offset="1" style="stop-color:#231F20"/>
					</linearGradient>
					<path fill="url(#SVGID_13_)" d="M13.424,12.37c0.018,0.044,2.503-0.898,4.098-1.53c1.594-0.63,1.059-0.439,1.042-0.482
						c-0.019-0.044,0.49-0.306-1.104,0.324C15.864,11.313,13.406,12.327,13.424,12.37z"/>
					
						<linearGradient id="SVGID_14_" gradientUnits="userSpaceOnUse" x1="5.6133" y1="-67.0498" x2="5.6133" y2="-66.3303" gradientTransform="matrix(0.9298 -0.368 0.368 0.9298 38.665 74.2021)">
						<stop  offset="0" style="stop-color:#FF2B2B"/>
						<stop  offset="0.1095" style="stop-color:#F52A2A"/>
						<stop  offset="0.2931" style="stop-color:#DB2726"/>
						<stop  offset="0.5282" style="stop-color:#B12221"/>
						<stop  offset="0.8028" style="stop-color:#771B1A"/>
						<stop  offset="1" style="stop-color:#491514"/>
					</linearGradient>
					<path fill="url(#SVGID_14_)" d="M24.035,8.2c0.071,0.181-1.912,1.128-5.66,2.611c-3.748,1.483-3.71,1.261-3.781,1.081
						c-0.072-0.181-0.226-0.252,3.521-1.734C21.863,8.674,23.964,8.019,24.035,8.2z"/>
				</g>
			</g>
		</g>
	</g>
</g>
</svg>
